<svg id="svg" version="1.1" xmlns="http://www.w3.org/2000/svg" xmlns:xlink="http://www.w3.org/1999/xlink" width="400" height="400" viewBox="0, 0, 400,400"><g id="svgg"><path id="path0" d="M93.200 99.626 C 93.200 106.749,107.859 121.657,121.800 128.711 C 130.938 133.335,136.886 135.146,150.400 137.417 C 157.088 138.542,158.416 138.851,158.182 139.229 C 158.056 139.433,157.198 139.611,156.276 139.624 C 154.333 139.651,152.593 139.951,146.800 141.255 C 137.550 143.336,116.110 142.259,101.000 138.953 C 95.862 137.829,91.411 136.760,90.400 136.408 C 89.850 136.216,88.050 135.669,86.400 135.192 C 80.560 133.503,74.074 131.235,71.000 129.806 C 70.340 129.500,68.900 128.859,67.800 128.384 C 56.472 123.485,44.797 116.360,36.381 109.210 L 34.273 107.419 34.550 110.469 C 36.263 129.380,46.023 142.516,68.000 155.493 C 79.815 162.469,83.399 164.340,104.000 174.296 C 131.862 187.760,151.666 202.195,167.716 220.740 C 169.182 222.434,173.765 228.752,174.361 229.900 C 175.028 231.186,174.677 231.055,171.044 228.668 C 162.249 222.887,149.682 216.185,139.800 212.005 C 137.600 211.074,135.080 209.992,134.200 209.599 C 127.399 206.563,112.047 201.915,99.343 199.045 C 96.123 198.318,94.381 198.202,95.913 198.817 C 98.581 199.888,119.861 215.179,129.669 223.072 C 165.418 251.841,181.916 275.790,180.020 296.162 C 179.492 301.844,179.352 301.633,182.479 299.873 C 186.520 297.599,189.763 293.909,195.021 285.600 C 197.902 281.047,200.235 277.688,207.167 268.110 C 220.692 249.424,230.588 238.865,239.300 233.824 C 240.345 233.219,241.200 232.578,241.200 232.399 C 241.200 231.329,230.757 225.476,223.400 222.422 C 214.348 218.664,212.683 217.467,203.800 208.326 C 200.280 204.704,196.320 200.960,195.000 200.007 C 193.680 199.053,192.525 198.212,192.433 198.137 C 192.342 198.062,192.372 197.895,192.500 197.767 C 193.142 197.124,200.615 201.565,207.600 206.739 C 209.690 208.288,212.179 210.121,213.132 210.814 C 217.997 214.352,225.928 217.541,235.000 219.607 C 248.039 222.576,254.775 227.704,260.998 239.400 C 267.382 251.400,273.662 254.163,292.000 253.041 C 298.501 252.644,300.196 252.908,308.467 255.609 C 321.182 259.761,326.466 263.434,333.196 272.794 C 339.165 281.097,342.333 283.177,350.937 284.442 C 367.576 286.888,375.433 270.991,368.158 249.600 C 366.313 244.177,364.112 240.915,348.996 221.200 C 343.682 214.270,338.381 207.160,337.215 205.400 C 336.049 203.640,334.790 201.750,334.417 201.200 C 332.452 198.300,330.608 193.228,327.511 182.200 C 324.231 170.525,320.831 165.211,312.200 158.270 C 305.244 152.676,304.075 151.054,301.578 143.530 C 299.415 137.011,295.133 128.272,291.685 123.339 C 291.248 122.712,290.202 121.120,289.362 119.800 C 284.701 112.476,276.407 102.866,277.368 105.900 C 277.489 106.285,277.971 108.310,278.439 110.400 C 278.906 112.490,279.529 115.280,279.825 116.600 C 281.487 124.033,282.085 127.124,282.795 131.952 C 283.806 138.828,283.779 138.842,279.681 133.507 C 270.530 121.596,259.211 113.448,247.353 110.233 C 235.132 106.920,226.668 107.378,209.800 112.266 C 198.617 115.506,195.946 116.116,185.630 117.789 C 181.278 118.494,168.025 118.606,162.000 117.989 C 159.910 117.774,155.590 117.334,152.400 117.011 C 140.417 115.795,135.199 114.817,125.000 111.876 C 119.702 110.349,108.620 105.941,101.572 102.558 C 92.838 98.365,93.200 98.492,93.200 99.626 M259.477 161.295 C 261.625 162.556,262.239 163.093,269.027 169.635 C 278.677 178.935,282.790 181.231,291.164 181.993 C 293.494 182.205,297.470 182.569,300.000 182.802 C 313.927 184.083,318.501 187.113,322.999 198.034 C 325.065 203.051,325.239 202.801,319.700 202.792 C 309.734 202.775,305.790 201.527,301.444 197.015 C 293.295 188.556,293.417 188.648,288.400 187.202 C 278.598 184.379,271.045 178.829,263.398 168.832 C 261.476 166.320,259.116 163.465,258.152 162.488 C 255.768 160.069,256.409 159.492,259.477 161.295 " stroke="none" fill="#fbfbfb" fill-rule="evenodd"></path><path id="path1" d="M0.000 200.000 L 0.000 400.000 200.000 400.000 L 400.000 400.000 400.000 200.000 L 400.000 0.000 200.000 0.000 L 0.000 0.000 0.000 200.000 M100.200 101.403 C 107.300 104.808,108.655 105.422,111.200 106.388 C 112.410 106.847,113.760 107.373,114.200 107.558 C 123.841 111.600,136.519 114.801,147.600 115.989 C 149.690 116.213,154.010 116.708,157.200 117.088 C 170.058 118.621,185.082 117.964,196.400 115.373 C 199.451 114.675,203.449 113.577,212.600 110.924 C 224.275 107.538,236.892 106.808,244.800 109.059 C 253.752 111.607,259.432 114.202,265.400 118.470 C 269.352 121.296,276.387 128.431,280.281 133.561 L 282.890 137.000 282.679 134.600 C 282.371 131.089,280.947 123.592,278.994 115.200 C 278.281 112.133,277.286 107.532,276.941 105.700 C 276.523 103.486,278.601 104.974,282.398 109.606 C 283.387 110.813,284.377 112.003,284.598 112.251 C 284.819 112.499,285.270 113.101,285.600 113.588 C 285.930 114.076,286.619 115.043,287.132 115.737 C 293.774 124.734,300.367 137.102,302.198 144.000 C 303.472 148.799,305.570 152.035,309.676 155.531 C 322.445 166.408,324.378 169.305,328.398 183.600 C 328.861 185.250,329.521 187.590,329.863 188.800 C 330.683 191.703,332.063 195.698,332.419 196.200 C 332.575 196.420,332.840 197.047,333.008 197.593 C 333.481 199.132,338.216 206.393,341.489 210.600 C 341.660 210.820,343.154 212.800,344.810 215.000 C 346.465 217.200,350.713 222.780,354.250 227.400 C 367.007 244.062,368.854 247.393,370.574 256.831 C 371.608 262.502,371.141 271.707,369.667 274.692 C 369.475 275.082,368.977 276.105,368.560 276.967 C 365.918 282.429,361.359 285.008,354.400 284.979 C 344.688 284.938,339.137 282.121,333.933 274.591 C 326.840 264.331,321.024 260.018,309.400 256.399 C 307.860 255.919,305.880 255.285,305.000 254.989 C 299.392 253.102,296.136 252.906,285.772 253.830 C 283.885 253.998,281.690 253.864,279.172 253.427 C 269.453 251.739,265.440 248.844,261.045 240.349 C 259.751 237.847,258.446 235.516,258.146 235.169 C 257.846 234.821,257.600 234.357,257.600 234.137 C 257.600 233.452,253.231 228.869,250.859 227.067 C 246.054 223.416,241.275 221.509,230.600 218.981 C 228.180 218.408,226.029 217.773,225.820 217.570 C 225.611 217.366,225.198 217.200,224.903 217.200 C 224.359 217.200,220.527 215.514,217.138 213.783 C 215.486 212.939,209.930 209.215,207.200 207.121 C 203.105 203.980,196.566 199.608,195.948 199.598 C 195.602 199.592,210.762 214.745,212.400 216.042 C 214.819 217.957,217.202 219.307,220.800 220.798 C 222.450 221.481,224.160 222.192,224.600 222.378 C 233.725 226.224,244.702 233.200,241.629 233.200 C 236.989 233.200,222.061 248.371,209.152 266.204 C 198.572 280.818,195.321 285.486,194.527 287.200 C 192.005 292.646,184.158 300.466,180.248 301.429 L 179.096 301.713 179.345 299.156 C 180.399 288.336,179.880 284.832,175.896 275.876 C 170.838 264.506,156.849 247.026,143.182 235.000 C 134.240 227.131,115.999 212.828,108.238 207.600 C 106.116 206.170,102.899 203.944,101.089 202.653 C 99.280 201.362,96.855 199.840,95.700 199.270 C 90.833 196.868,94.073 197.200,107.600 200.491 C 128.004 205.454,153.183 216.365,170.352 227.684 C 171.975 228.754,173.373 229.560,173.458 229.475 C 174.034 228.899,164.324 217.226,158.731 211.770 C 146.623 199.960,134.407 191.206,114.600 180.147 C 111.514 178.424,101.210 173.301,96.200 170.999 C 91.226 168.714,85.725 165.988,82.000 163.962 C 76.183 160.799,74.753 159.987,69.477 156.848 C 66.660 155.172,63.897 153.557,63.338 153.260 C 49.450 145.873,37.715 130.637,34.949 116.400 C 33.403 108.440,33.689 105.971,35.914 108.060 C 46.880 118.356,69.452 130.177,87.400 135.024 C 88.500 135.321,90.750 135.938,92.400 136.395 C 110.959 141.534,134.806 143.356,147.400 140.597 C 150.040 140.018,152.971 139.443,153.913 139.319 C 156.260 139.009,155.801 138.765,151.704 138.145 C 139.975 136.368,131.643 133.987,123.604 130.115 C 108.708 122.940,96.763 111.586,93.161 101.180 C 91.829 97.329,91.698 97.325,100.200 101.403 M258.921 162.696 C 259.914 163.743,262.610 167.030,264.913 170.000 C 271.762 178.834,284.026 187.200,290.126 187.200 C 291.828 187.200,294.592 189.291,299.400 194.214 C 306.329 201.310,309.124 202.400,320.391 202.400 C 324.488 202.400,324.486 202.406,322.175 197.340 C 321.859 196.646,321.600 195.987,321.600 195.875 C 321.600 192.543,314.164 185.818,309.504 184.934 C 308.787 184.799,307.920 184.545,307.578 184.372 C 306.947 184.051,298.160 183.048,290.263 182.395 C 287.877 182.198,285.717 181.873,285.463 181.674 C 285.208 181.475,284.430 181.205,283.733 181.073 C 280.708 180.501,274.740 175.993,267.730 168.986 C 261.982 163.240,254.099 157.612,258.921 162.696 " stroke="none" fill="#040404" fill-rule="evenodd"></path><path id="path2" d="M105.600 104.600 C 106.150 104.914,106.780 105.172,107.000 105.172 C 107.220 105.172,106.950 104.914,106.400 104.600 C 105.850 104.286,105.220 104.028,105.000 104.028 C 104.780 104.028,105.050 104.286,105.600 104.600 M97.600 109.200 C 98.070 109.860,98.544 110.400,98.654 110.400 C 98.764 110.400,98.470 109.860,98.000 109.200 C 97.530 108.540,97.056 108.000,96.946 108.000 C 96.836 108.000,97.130 108.540,97.600 109.200 M224.500 108.676 C 224.885 108.776,225.515 108.776,225.900 108.676 C 226.285 108.575,225.970 108.493,225.200 108.493 C 224.430 108.493,224.115 108.575,224.500 108.676 M36.800 109.325 C 36.800 109.394,37.385 109.979,38.100 110.625 L 39.400 111.800 38.225 110.500 C 37.130 109.288,36.800 109.016,36.800 109.325 M246.200 110.000 C 246.640 110.189,247.270 110.344,247.600 110.344 C 247.978 110.344,247.904 110.217,247.400 110.000 C 246.960 109.811,246.330 109.656,246.000 109.656 C 245.622 109.656,245.696 109.783,246.200 110.000 M34.880 115.000 C 34.880 115.440,35.024 116.250,35.200 116.800 C 35.454 117.592,35.520 117.633,35.520 117.000 C 35.520 116.560,35.376 115.750,35.200 115.200 C 34.946 114.408,34.880 114.367,34.880 115.000 M148.300 116.682 C 148.795 116.778,149.605 116.778,150.100 116.682 C 150.595 116.587,150.190 116.509,149.200 116.509 C 148.210 116.509,147.805 116.587,148.300 116.682 M160.505 117.887 C 161.114 117.979,162.014 117.977,162.505 117.882 C 162.997 117.787,162.500 117.711,161.400 117.714 C 160.300 117.717,159.897 117.795,160.505 117.887 M165.305 118.287 C 165.914 118.379,166.814 118.377,167.305 118.282 C 167.797 118.187,167.300 118.111,166.200 118.114 C 165.100 118.117,164.697 118.195,165.305 118.287 M180.705 118.283 C 181.202 118.379,181.922 118.375,182.305 118.275 C 182.687 118.175,182.280 118.096,181.400 118.101 C 180.520 118.105,180.207 118.187,180.705 118.283 M280.244 119.800 C 280.573 121.271,280.802 121.590,280.794 120.567 C 280.791 120.145,280.605 119.530,280.382 119.200 C 280.085 118.762,280.048 118.924,280.244 119.800 M270.000 123.000 C 270.746 123.770,271.447 124.400,271.557 124.400 C 271.667 124.400,271.146 123.770,270.400 123.000 C 269.654 122.230,268.953 121.600,268.843 121.600 C 268.733 121.600,269.254 122.230,270.000 123.000 M274.800 127.725 C 274.800 127.794,275.385 128.379,276.100 129.025 L 277.400 130.200 276.225 128.900 C 275.130 127.688,274.800 127.416,274.800 127.725 M138.833 135.344 C 138.925 135.423,139.540 135.608,140.200 135.756 C 141.076 135.952,141.238 135.915,140.800 135.618 C 140.260 135.253,138.432 134.998,138.833 135.344 M283.246 136.267 C 283.221 136.524,283.084 137.064,282.941 137.467 C 282.740 138.036,282.794 138.097,283.179 137.742 C 283.452 137.491,283.589 136.951,283.484 136.542 C 283.379 136.134,283.272 136.010,283.246 136.267 M156.600 138.781 C 157.306 139.067,157.259 139.127,156.200 139.293 C 155.081 139.468,155.099 139.484,156.476 139.540 C 158.158 139.608,158.842 139.012,157.496 138.651 C 156.227 138.311,155.648 138.395,156.600 138.781 M102.200 139.200 C 102.640 139.389,103.360 139.538,103.800 139.532 C 104.443 139.523,104.404 139.457,103.600 139.200 C 102.232 138.762,101.181 138.762,102.200 139.200 M110.500 140.676 C 110.885 140.776,111.515 140.776,111.900 140.676 C 112.285 140.575,111.970 140.493,111.200 140.493 C 110.430 140.493,110.115 140.575,110.500 140.676 M120.305 141.883 C 120.802 141.979,121.522 141.975,121.905 141.875 C 122.287 141.775,121.880 141.696,121.000 141.701 C 120.120 141.705,119.807 141.787,120.305 141.883 M125.107 142.290 C 125.826 142.379,126.906 142.377,127.507 142.286 C 128.108 142.195,127.520 142.122,126.200 142.124 C 124.880 142.126,124.388 142.201,125.107 142.290 M256.400 160.700 C 256.400 160.865,256.923 161.000,257.562 161.000 C 258.201 161.000,258.640 160.865,258.538 160.700 C 258.436 160.535,257.913 160.400,257.376 160.400 C 256.839 160.400,256.400 160.535,256.400 160.700 M267.800 168.800 C 270.433 171.440,272.677 173.600,272.787 173.600 C 272.897 173.600,270.833 171.440,268.200 168.800 C 265.567 166.160,263.323 164.000,263.213 164.000 C 263.103 164.000,265.167 166.160,267.800 168.800 M290.300 182.289 C 291.015 182.378,292.185 182.378,292.900 182.289 C 293.615 182.201,293.030 182.128,291.600 182.128 C 290.170 182.128,289.585 182.201,290.300 182.289 M303.700 183.476 C 304.085 183.576,304.715 183.576,305.100 183.476 C 305.485 183.375,305.170 183.293,304.400 183.293 C 303.630 183.293,303.315 183.375,303.700 183.476 M328.456 185.600 C 328.456 185.930,328.611 186.560,328.800 187.000 C 329.017 187.504,329.144 187.578,329.144 187.200 C 329.144 186.870,328.989 186.240,328.800 185.800 C 328.583 185.296,328.456 185.222,328.456 185.600 M295.200 190.600 C 295.946 191.370,296.647 192.000,296.757 192.000 C 296.867 192.000,296.346 191.370,295.600 190.600 C 294.854 189.830,294.153 189.200,294.043 189.200 C 293.933 189.200,294.454 189.830,295.200 190.600 M298.400 193.800 C 299.146 194.570,299.847 195.200,299.957 195.200 C 300.067 195.200,299.546 194.570,298.800 193.800 C 298.054 193.030,297.353 192.400,297.243 192.400 C 297.133 192.400,297.654 193.030,298.400 193.800 M192.400 198.000 C 192.400 198.220,192.805 198.397,193.300 198.394 C 194.028 198.389,194.085 198.314,193.600 198.000 C 192.824 197.499,192.400 197.499,192.400 198.000 M99.800 199.200 C 100.240 199.389,100.960 199.538,101.400 199.532 C 102.043 199.523,102.004 199.457,101.200 199.200 C 99.832 198.762,98.781 198.762,99.800 199.200 M314.900 202.687 C 315.505 202.778,316.495 202.778,317.100 202.687 C 317.705 202.595,317.210 202.520,316.000 202.520 C 314.790 202.520,314.295 202.595,314.900 202.687 M123.200 205.533 C 123.530 205.736,124.250 206.024,124.800 206.171 C 125.495 206.357,125.617 206.325,125.200 206.067 C 124.870 205.864,124.150 205.576,123.600 205.429 C 122.905 205.243,122.783 205.275,123.200 205.533 M154.000 207.000 C 154.746 207.770,155.447 208.400,155.557 208.400 C 155.667 208.400,155.146 207.770,154.400 207.000 C 153.654 206.230,152.953 205.600,152.843 205.600 C 152.733 205.600,153.254 206.230,154.000 207.000 M203.800 208.400 C 205.106 209.720,206.265 210.800,206.375 210.800 C 206.485 210.800,205.506 209.720,204.200 208.400 C 202.894 207.080,201.735 206.000,201.625 206.000 C 201.515 206.000,202.494 207.080,203.800 208.400 M339.200 208.400 C 339.670 209.060,340.144 209.600,340.254 209.600 C 340.364 209.600,340.070 209.060,339.600 208.400 C 339.130 207.740,338.656 207.200,338.546 207.200 C 338.436 207.200,338.730 207.740,339.200 208.400 M159.600 212.200 C 161.460 214.070,163.072 215.600,163.182 215.600 C 163.292 215.600,161.860 214.070,160.000 212.200 C 158.140 210.330,156.528 208.800,156.418 208.800 C 156.308 208.800,157.740 210.330,159.600 212.200 M115.200 212.146 C 115.200 212.256,115.740 212.730,116.400 213.200 C 117.060 213.670,117.600 213.964,117.600 213.854 C 117.600 213.744,117.060 213.270,116.400 212.800 C 115.740 212.330,115.200 212.036,115.200 212.146 M164.000 216.925 C 164.000 216.994,164.585 217.579,165.300 218.225 L 166.600 219.400 165.425 218.100 C 164.330 216.888,164.000 216.616,164.000 216.925 M126.800 220.933 C 126.800 221.043,127.520 221.703,128.400 222.400 C 129.280 223.097,130.000 223.577,130.000 223.467 C 130.000 223.357,129.280 222.697,128.400 222.000 C 127.520 221.303,126.800 220.823,126.800 220.933 M254.200 229.600 C 255.059 230.480,255.852 231.200,255.962 231.200 C 256.072 231.200,255.459 230.480,254.600 229.600 C 253.741 228.720,252.948 228.000,252.838 228.000 C 252.728 228.000,253.341 228.720,254.200 229.600 M140.400 232.125 C 140.400 232.194,140.985 232.779,141.700 233.425 L 143.000 234.600 141.825 233.300 C 140.730 232.088,140.400 231.816,140.400 232.125 M143.600 234.925 C 143.600 234.994,144.185 235.579,144.900 236.225 L 146.200 237.400 145.025 236.100 C 143.930 234.888,143.600 234.616,143.600 234.925 M149.800 240.800 C 151.550 242.560,153.071 244.000,153.181 244.000 C 153.291 244.000,151.950 242.560,150.200 240.800 C 148.450 239.040,146.929 237.600,146.819 237.600 C 146.709 237.600,148.050 239.040,149.800 240.800 M227.775 242.900 L 226.600 244.200 227.900 243.025 C 228.615 242.379,229.200 241.794,229.200 241.725 C 229.200 241.416,228.870 241.688,227.775 242.900 M223.381 247.300 L 221.800 249.000 223.500 247.419 C 224.435 246.549,225.200 245.784,225.200 245.719 C 225.200 245.416,224.852 245.719,223.381 247.300 M266.200 247.600 C 267.059 248.480,267.852 249.200,267.962 249.200 C 268.072 249.200,267.459 248.480,266.600 247.600 C 265.741 246.720,264.948 246.000,264.838 246.000 C 264.728 246.000,265.341 246.720,266.200 247.600 M159.600 251.400 C 160.346 252.170,161.047 252.800,161.157 252.800 C 161.267 252.800,160.746 252.170,160.000 251.400 C 159.254 250.630,158.553 250.000,158.443 250.000 C 158.333 250.000,158.854 250.630,159.600 251.400 M276.600 252.800 C 277.040 252.989,277.670 253.144,278.000 253.144 C 278.378 253.144,278.304 253.017,277.800 252.800 C 277.360 252.611,276.730 252.456,276.400 252.456 C 276.022 252.456,276.096 252.583,276.600 252.800 M293.113 253.095 C 294.276 253.176,296.076 253.176,297.113 253.093 C 298.151 253.011,297.200 252.945,295.000 252.946 C 292.800 252.947,291.951 253.014,293.113 253.095 M281.500 253.482 C 281.995 253.578,282.805 253.578,283.300 253.482 C 283.795 253.387,283.390 253.309,282.400 253.309 C 281.410 253.309,281.005 253.387,281.500 253.482 M353.507 285.090 C 354.226 285.179,355.306 285.177,355.907 285.086 C 356.508 284.995,355.920 284.922,354.600 284.924 C 353.280 284.926,352.788 285.001,353.507 285.090 M180.131 291.400 C 180.133 292.940,180.205 293.521,180.292 292.691 C 180.379 291.861,180.377 290.601,180.289 289.891 C 180.200 289.181,180.129 289.860,180.131 291.400 M186.786 296.700 L 184.600 299.000 186.900 296.814 C 189.037 294.782,189.383 294.400,189.086 294.400 C 189.024 294.400,187.989 295.435,186.786 296.700 " stroke="none" fill="#848484" fill-rule="evenodd"></path><path id="path3" d="M276.854 105.500 C 276.902 106.452,276.932 106.478,277.083 105.694 C 277.184 105.171,277.440 104.901,277.690 105.056 C 277.949 105.215,278.008 105.137,277.838 104.862 C 277.326 104.033,276.799 104.375,276.854 105.500 M34.166 107.345 C 34.051 107.644,34.022 108.949,34.103 110.245 L 34.249 112.600 34.324 109.825 L 34.400 107.050 35.700 108.225 L 37.000 109.400 35.825 108.100 C 34.488 106.621,34.450 106.603,34.166 107.345 M231.700 107.891 C 232.525 107.978,233.875 107.978,234.700 107.891 C 235.525 107.805,234.850 107.734,233.200 107.734 C 231.550 107.734,230.875 107.805,231.700 107.891 M242.600 108.800 C 243.040 108.989,243.670 109.144,244.000 109.144 C 244.378 109.144,244.304 109.017,243.800 108.800 C 243.360 108.611,242.730 108.456,242.400 108.456 C 242.022 108.456,242.096 108.583,242.600 108.800 M152.100 116.676 C 152.485 116.776,153.115 116.776,153.500 116.676 C 153.885 116.575,153.570 116.493,152.800 116.493 C 152.030 116.493,151.715 116.575,152.100 116.676 M155.105 117.083 C 155.602 117.179,156.322 117.175,156.705 117.075 C 157.087 116.975,156.680 116.896,155.800 116.901 C 154.920 116.905,154.607 116.987,155.105 117.083 M106.000 118.600 C 106.746 119.370,107.447 120.000,107.557 120.000 C 107.667 120.000,107.146 119.370,106.400 118.600 C 105.654 117.830,104.953 117.200,104.843 117.200 C 104.733 117.200,105.254 117.830,106.000 118.600 M180.900 117.876 C 181.285 117.976,181.915 117.976,182.300 117.876 C 182.685 117.775,182.370 117.693,181.600 117.693 C 180.830 117.693,180.515 117.775,180.900 117.876 M173.513 118.295 C 174.676 118.376,176.476 118.376,177.513 118.293 C 178.551 118.211,177.600 118.145,175.400 118.146 C 173.200 118.147,172.351 118.214,173.513 118.295 M280.468 122.000 C 280.488 123.039,281.118 124.746,281.132 123.800 C 281.138 123.360,280.989 122.640,280.800 122.200 C 280.589 121.710,280.461 121.632,280.468 122.000 M124.905 141.887 C 125.514 141.979,126.414 141.977,126.905 141.882 C 127.397 141.787,126.900 141.711,125.800 141.714 C 124.700 141.717,124.297 141.795,124.905 141.887 M132.316 142.297 C 133.699 142.375,135.859 142.374,137.116 142.295 C 138.372 142.216,137.240 142.152,134.600 142.153 C 131.960 142.153,130.932 142.218,132.316 142.297 M51.200 144.125 C 51.200 144.194,51.785 144.779,52.500 145.425 L 53.800 146.600 52.625 145.300 C 51.530 144.088,51.200 143.816,51.200 144.125 M269.983 171.300 C 270.964 172.345,271.819 173.200,271.883 173.200 C 272.184 173.200,271.866 172.841,270.100 171.183 L 268.200 169.400 269.983 171.300 M297.500 183.082 C 297.995 183.178,298.805 183.178,299.300 183.082 C 299.795 182.987,299.390 182.909,298.400 182.909 C 297.410 182.909,297.005 182.987,297.500 183.082 M297.000 192.000 C 298.306 193.320,299.465 194.400,299.575 194.400 C 299.685 194.400,298.706 193.320,297.400 192.000 C 296.094 190.680,294.935 189.600,294.825 189.600 C 294.715 189.600,295.694 190.680,297.000 192.000 M301.200 196.525 C 301.200 196.594,301.785 197.179,302.500 197.825 L 303.800 199.000 302.625 197.700 C 301.530 196.488,301.200 196.216,301.200 196.525 M93.600 197.957 C 93.600 198.589,94.726 198.770,94.954 198.175 C 95.100 197.795,94.908 197.600,94.387 197.600 C 93.954 197.600,93.600 197.761,93.600 197.957 M194.454 199.163 C 194.972 199.583,195.556 199.827,195.752 199.706 C 195.948 199.585,195.679 199.248,195.154 198.957 C 193.749 198.178,193.374 198.288,194.454 199.163 M196.400 200.525 C 196.400 200.594,196.985 201.179,197.700 201.825 L 199.000 203.000 197.825 201.700 C 196.730 200.488,196.400 200.216,196.400 200.525 M313.505 202.283 C 314.002 202.379,314.722 202.375,315.105 202.275 C 315.487 202.175,315.080 202.096,314.200 202.101 C 313.320 202.105,313.007 202.187,313.505 202.283 M319.907 202.690 C 320.626 202.779,321.706 202.777,322.307 202.686 C 322.908 202.595,322.320 202.522,321.000 202.524 C 319.680 202.526,319.188 202.601,319.907 202.690 M202.400 206.600 C 203.146 207.370,203.847 208.000,203.957 208.000 C 204.067 208.000,203.546 207.370,202.800 206.600 C 202.054 205.830,201.353 205.200,201.243 205.200 C 201.133 205.200,201.654 205.830,202.400 206.600 M159.400 212.400 C 161.150 214.160,162.671 215.600,162.781 215.600 C 162.891 215.600,161.550 214.160,159.800 212.400 C 158.050 210.640,156.529 209.200,156.419 209.200 C 156.309 209.200,157.650 210.640,159.400 212.400 M253.983 229.700 C 255.641 231.466,256.000 231.784,256.000 231.483 C 256.000 231.419,255.145 230.564,254.100 229.583 L 252.200 227.800 253.983 229.700 M136.800 229.325 C 136.800 229.394,137.385 229.979,138.100 230.625 L 139.400 231.800 138.225 230.500 C 137.130 229.288,136.800 229.016,136.800 229.325 M150.200 241.600 C 151.950 243.360,153.471 244.800,153.581 244.800 C 153.691 244.800,152.350 243.360,150.600 241.600 C 148.850 239.840,147.329 238.400,147.219 238.400 C 147.109 238.400,148.450 239.840,150.200 241.600 M228.378 242.700 L 227.000 244.200 228.500 242.822 C 229.896 241.538,230.184 241.200,229.878 241.200 C 229.812 241.200,229.137 241.875,228.378 242.700 M223.578 247.500 L 222.200 249.000 223.700 247.622 C 225.096 246.338,225.384 246.000,225.078 246.000 C 225.012 246.000,224.337 246.675,223.578 247.500 M155.200 246.925 C 155.200 246.994,155.785 247.579,156.500 248.225 L 157.800 249.400 156.625 248.100 C 155.530 246.888,155.200 246.616,155.200 246.925 M265.200 246.925 C 265.200 246.994,265.785 247.579,266.500 248.225 L 267.800 249.400 266.625 248.100 C 265.530 246.888,265.200 246.616,265.200 246.925 M369.444 253.000 C 369.773 254.471,370.002 254.790,369.994 253.767 C 369.991 253.345,369.805 252.730,369.582 252.400 C 369.285 251.962,369.248 252.124,369.444 253.000 M282.700 253.893 C 283.635 253.977,285.165 253.977,286.100 253.893 C 287.035 253.809,286.270 253.740,284.400 253.740 C 282.530 253.740,281.765 253.809,282.700 253.893 M370.909 260.800 C 370.909 261.790,370.987 262.195,371.082 261.700 C 371.178 261.205,371.178 260.395,371.082 259.900 C 370.987 259.405,370.909 259.810,370.909 260.800 M327.583 266.500 C 328.564 267.545,329.419 268.400,329.483 268.400 C 329.784 268.400,329.466 268.041,327.700 266.383 L 325.800 264.600 327.583 266.500 M370.914 267.000 C 370.917 268.100,370.995 268.503,371.087 267.895 C 371.179 267.286,371.177 266.386,371.082 265.895 C 370.987 265.403,370.911 265.900,370.914 267.000 M186.575 297.300 L 185.400 298.600 186.700 297.425 C 187.912 296.330,188.184 296.000,187.875 296.000 C 187.806 296.000,187.221 296.585,186.575 297.300 " stroke="none" fill="#595959" fill-rule="evenodd"></path><path id="path4" d="M168.905 118.287 C 169.514 118.379,170.414 118.377,170.905 118.282 C 171.397 118.187,170.900 118.111,169.800 118.114 C 168.700 118.117,168.297 118.195,168.905 118.287 M273.000 125.600 C 273.859 126.480,274.652 127.200,274.762 127.200 C 274.872 127.200,274.259 126.480,273.400 125.600 C 272.541 124.720,271.748 124.000,271.638 124.000 C 271.528 124.000,272.141 124.720,273.000 125.600 M317.583 162.900 C 318.564 163.945,319.419 164.800,319.483 164.800 C 319.784 164.800,319.466 164.441,317.700 162.783 L 315.800 161.000 317.583 162.900 M198.800 202.925 C 198.800 202.994,199.385 203.579,200.100 204.225 L 201.400 205.400 200.225 204.100 C 199.130 202.888,198.800 202.616,198.800 202.925 M206.400 210.925 C 206.400 210.994,206.985 211.579,207.700 212.225 L 209.000 213.400 207.825 212.100 C 206.730 210.888,206.400 210.616,206.400 210.925 M370.901 263.800 C 370.905 264.680,370.987 264.993,371.083 264.495 C 371.179 263.998,371.175 263.278,371.075 262.895 C 370.975 262.513,370.896 262.920,370.901 263.800 " stroke="none" fill="#747474" fill-rule="evenodd"></path></g></svg>